<?xml version="1.0" encoding="UTF-8"?>
<svg version="1.1" xmlns="http://www.w3.org/2000/svg" width="550" height="550">
<path d="M0 0 C181.5 0 363 0 550 0 C550 181.5 550 363 550 550 C368.5 550 187 550 0 550 C0 368.5 0 187 0 0 Z " fill="#051C2B" transform="translate(0,0)"/>
<path d="M0 0 C5.45045161 4.35897968 9.59502323 8.92405465 13.6875 14.5625 C14.28836426 15.3860498 14.88922852 16.20959961 15.50830078 17.05810547 C22.10127035 26.27854435 27.704314 35.98925142 33 46 C33.37850098 46.70769531 33.75700195 47.41539062 34.14697266 48.14453125 C50.1481516 78.51065619 56.45256011 112.00019626 56.375 146 C56.37412384 146.94365417 56.37324768 147.88730835 56.37234497 148.85955811 C56.32633989 163.92407406 55.52328175 178.29225887 52 193 C51.76394043 194.01046387 51.52788086 195.02092773 51.28466797 196.06201172 C42.82920123 231.26313919 26.3367991 264.10143257 2 291 C1.20851563 291.89976562 0.41703125 292.79953125 -0.3984375 293.7265625 C-33.05768367 330.62147882 -76.36917336 351.76741447 -124 362 C-124.79100098 362.18079102 -125.58200195 362.36158203 -126.39697266 362.54785156 C-177.46640075 374.02848724 -235.79267483 359.40429386 -279.43432617 332.33251953 C-284.98067703 328.78240513 -290.34419105 324.99538302 -295.625 321.0625 C-296.3665332 320.51875732 -297.10806641 319.97501465 -297.87207031 319.41479492 C-298.88285645 318.63906128 -298.88285645 318.63906128 -299.9140625 317.84765625 C-300.5117041 317.39398682 -301.1093457 316.94031738 -301.72509766 316.47290039 C-303 315 -303 315 -303 311 C-301.25451429 308.43042477 -298.96262359 306.35985099 -296.75 304.1875 C-296.16347656 303.57712891 -295.57695312 302.96675781 -294.97265625 302.33789062 C-294.39902344 301.76619141 -293.82539063 301.19449219 -293.234375 300.60546875 C-292.44885254 299.81885864 -292.44885254 299.81885864 -291.64746094 299.01635742 C-290 298 -290 298 -287.98120117 298.20703125 C-284.78280815 299.48717673 -282.25524386 301.70944757 -279.5625 303.8125 C-257.79479 320.15850269 -232.60294811 331.33174307 -206 337 C-205.15872559 337.19319824 -204.31745117 337.38639648 -203.45068359 337.58544922 C-189.95748407 340.62222479 -176.71370782 341.37138618 -162.9375 341.375 C-162.15739563 341.37690338 -161.37729126 341.37880676 -160.57354736 341.38076782 C-123.57853692 341.37053609 -89.65341212 329.62980114 -58 311 C-59.97467162 308.64002661 -61.96935175 306.31119834 -64 304 C-64.5878125 303.32066406 -65.175625 302.64132812 -65.78125 301.94140625 C-66.66296875 300.98041016 -66.66296875 300.98041016 -67.5625 300 C-68.10003906 299.401875 -68.63757813 298.80375 -69.19140625 298.1875 C-70.95386004 296.78057065 -70.95386004 296.78057065 -73.25390625 297.08203125 C-76.8172589 298.27319465 -80.0620801 299.94049012 -83.375 301.6875 C-121.11713558 321.0134489 -163.58320746 326.75462768 -205 317 C-205.76328613 316.82339844 -206.52657227 316.64679688 -207.31298828 316.46484375 C-236.2030276 309.51114585 -263.15169355 294.18349452 -284.38671875 273.56201172 C-286.00418884 271.99594428 -287.64158894 270.4529371 -289.28125 268.91015625 C-308.73343208 250.35136362 -322.06339931 227.22821305 -331 202 C-331.49935059 200.62799438 -331.49935059 200.62799438 -332.00878906 199.22827148 C-342.3951946 169.66414491 -343.02582402 136.31970277 -336 106 C-335.75975098 104.92709717 -335.75975098 104.92709717 -335.51464844 103.83251953 C-329.35699122 76.84210907 -315.97510387 52.64940783 -299 31 C-294.59910711 32.99171431 -291.93295402 35.87930338 -288.6875 39.375 C-287.84348633 40.24125 -287.84348633 40.24125 -286.98242188 41.125 C-285.38671875 42.8359375 -285.38671875 42.8359375 -283 46 C-283.46504244 49.9104571 -285.49246902 52.10845914 -287.9375 55.125 C-311.16336849 84.9814413 -319.69458212 123.68822855 -316.6875 160.86328125 C-316.2483575 163.94904151 -315.66363838 166.95484789 -315 170 C-314.73940504 171.36820845 -314.48040928 172.73672207 -314.22265625 174.10546875 C-310.8013124 191.52339281 -304.30023289 207.3696913 -296 223 C-292.01837023 221.40548316 -289.58904054 218.79059473 -286.6875 215.6875 C-285.33205078 214.27017578 -285.33205078 214.27017578 -283.94921875 212.82421875 C-281.79261206 210.26000068 -281.79261206 210.26000068 -281.96875 207.7265625 C-283.50056999 203.67652328 -285.13393521 199.67872883 -286.8125 195.6875 C-290.41448895 186.90514943 -293.10338022 178.30470397 -295 169 C-295.17442627 168.1862793 -295.34885254 167.37255859 -295.52856445 166.53417969 C-301.84200118 135.17885633 -294.44314939 100.55925589 -277.18066406 73.765625 C-258.87246283 46.38661108 -233.50757246 26.33473429 -201.8125 16.6875 C-201.0177124 16.44499512 -200.2229248 16.20249023 -199.40405273 15.95263672 C-188.14051908 12.68901429 -177.26644257 11.67604144 -165.5625 11.75 C-163.73235352 11.73839844 -163.73235352 11.73839844 -161.86523438 11.7265625 C-134.38418207 11.78500174 -105.87779325 21.17092827 -84 38 C-85.32120828 40.93230193 -86.74638197 42.98664899 -89.0390625 45.234375 C-89.61914062 45.80800781 -90.19921875 46.38164062 -90.796875 46.97265625 C-91.40015625 47.55917969 -92.0034375 48.14570313 -92.625 48.75 C-93.23601562 49.35199219 -93.84703125 49.95398438 -94.4765625 50.57421875 C-95.97988624 52.05405305 -97.48934856 53.52764676 -99 55 C-99.63164062 54.64808594 -100.26328125 54.29617187 -100.9140625 53.93359375 C-103.93174845 52.26821375 -106.96433961 50.63238342 -110 49 C-111.0725 48.4121875 -112.145 47.824375 -113.25 47.21875 C-122.23669961 42.47576965 -131.17992015 39.48583611 -141 37 C-141.9075 36.7525 -142.815 36.505 -143.75 36.25 C-158.68319636 32.80387776 -175.27225763 34.36526871 -190 38 C-191.1653125 38.26683594 -192.330625 38.53367188 -193.53125 38.80859375 C-218.65446263 45.17427263 -242.82839562 62.60021419 -256.34375 84.7578125 C-267.97194249 104.52284834 -273.32443162 122.88116691 -273.5 145.6875 C-273.51053406 146.38211334 -273.52106812 147.07672668 -273.53192139 147.79238892 C-273.65353793 158.17283582 -272.15924401 167.09260486 -269 177 C-268.74863281 177.80800049 -268.49726563 178.61600098 -268.23828125 179.44848633 C-265.00339678 189.36728336 -260.43882561 198.12856804 -255 207 C-253.9993387 208.66626971 -252.9990901 210.33278773 -252 212 C-261.26248487 222.40499402 -271.09941605 232.20573324 -281 242 C-270.81383851 263.21654138 -242.84785343 278.45832404 -222 287 C-221.3807666 287.25974609 -220.7615332 287.51949219 -220.12353516 287.78710938 C-183.7438012 302.80243906 -142.60901789 301.66673016 -106.3359375 287.18359375 C-94.9507572 282.41943504 -82.66393928 276.75825368 -73.26953125 268.640625 C-71 267 -71 267 -69.04144287 267.23744202 C-65.56989618 268.53419917 -63.2564219 271.33903824 -60.703125 273.93359375 C-60.10949158 274.52672867 -59.51585815 275.11986359 -58.90423584 275.73097229 C-57.65341498 276.98413069 -56.40627889 278.24097635 -55.16259766 279.5012207 C-53.25191667 281.43555959 -51.32819803 283.35617044 -49.40234375 285.27539062 C-48.18930865 286.4940003 -46.97704196 287.71337547 -45.765625 288.93359375 C-45.18758118 289.51072617 -44.60953735 290.08785858 -44.01397705 290.68247986 C-40 294.76896959 -40 294.76896959 -40 297 C-33.82480848 292.65639754 -28.43838732 287.79072634 -23.125 282.4375 C-22.33416016 281.64102051 -21.54332031 280.84454102 -20.72851562 280.02392578 C-0.59039097 259.46798054 14.17305898 233.31377161 23 206 C23.23557617 205.27522461 23.47115234 204.55044922 23.71386719 203.80371094 C25.37103643 198.58634644 26.75557056 193.3300562 28 188 C28.19754883 187.17097168 28.39509766 186.34194336 28.59863281 185.48779297 C39.69201786 136.83848818 29.42775388 84.48609348 4 42 C-0.54279711 34.93519216 -5.37644474 28.01714653 -10.85546875 21.64453125 C-13 19 -13 19 -13 17 C-13.66 17 -14.32 17 -15 17 C-13.67879172 14.06769807 -12.25361803 12.01335101 -9.9609375 9.765625 C-9.38085938 9.19199219 -8.80078125 8.61835938 -8.203125 8.02734375 C-7.29820312 7.14755859 -7.29820312 7.14755859 -6.375 6.25 C-5.76398438 5.64800781 -5.15296875 5.04601562 -4.5234375 4.42578125 C-3.02011376 2.94594695 -1.51065144 1.47235324 0 0 Z " fill="#FC5000" transform="translate(439,130)"/>
<path d="M0 0 C1.33297084 0.40613955 2.66628174 0.81116542 4 1.21484375 C26.63041613 8.33479459 47.08691428 19.79659486 66 34 C67.30517578 34.96873047 67.30517578 34.96873047 68.63671875 35.95703125 C70.43189275 37.29479617 72.2175451 38.64533428 74 40 C73.4194679 43.30118794 72.45131901 44.91134076 70.05859375 47.234375 C69.47529297 47.80800781 68.89199219 48.38164063 68.29101562 48.97265625 C67.67935547 49.55917969 67.06769531 50.14570312 66.4375 50.75 C65.82197266 51.35199219 65.20644531 51.95398438 64.57226562 52.57421875 C63.05485187 54.05634381 61.52829404 55.5290967 60 57 C57.23336556 55.68806256 54.78632885 54.22702168 52.3125 52.42578125 C51.62051514 51.92667236 50.92853027 51.42756348 50.21557617 50.91333008 C49.48443604 50.38505615 48.7532959 49.85678223 48 49.3125 C22.09109922 30.89513206 -7.51101103 19.38144552 -39 15 C-39.68223633 14.8976001 -40.36447266 14.7952002 -41.06738281 14.68969727 C-48.63018752 13.68233453 -56.25968295 13.79906873 -63.875 13.8125 C-64.61153809 13.81376892 -65.34807617 13.81503784 -66.10693359 13.81634521 C-102.44311937 13.93569045 -142.88422333 21.70737867 -172 45 C-167.38 49.62 -162.76 54.24 -158 59 C-155.916875 57.845 -153.83375 56.69 -151.6875 55.5 C-135.43802739 46.77760474 -118.97732622 41.05748549 -101 37 C-100.24992676 36.82065918 -99.49985352 36.64131836 -98.72705078 36.45654297 C-77.12454065 31.39400452 -52.61105094 32.59505009 -31 37 C-30.2889209 37.14453613 -29.5778418 37.28907227 -28.84521484 37.43798828 C16.37493328 47.00766106 56.02543609 74.44788666 81.58789062 112.81689453 C85.39181537 118.6977201 88.78284157 124.78194944 92 131 C92.31807617 131.61020996 92.63615234 132.22041992 92.96386719 132.84912109 C104.97749383 156.22987305 110.41208135 182.6313818 110.375 208.8125 C110.37418427 209.80438828 110.37418427 209.80438828 110.37335205 210.8163147 C110.21530619 253.164387 95.44189251 291.25847166 69 324 C64.8586167 320.5191826 60.86209149 316.98304674 57.0625 313.125 C56.29035156 312.34382813 55.51820313 311.56265625 54.72265625 310.7578125 C53.86994141 309.88769531 53.86994141 309.88769531 53 309 C54.40723879 305.88886126 56.21915926 303.17723394 58.17260742 300.38427734 C82.50641067 265.3372131 92.15134422 225.01702765 84.90234375 182.78125 C84.60743666 181.1864026 84.30695756 179.59257197 84 178 C83.79914795 176.94425781 83.79914795 176.94425781 83.59423828 175.8671875 C80.56776651 160.66512808 74.87718165 144.77776147 66 132 C62.26132929 135.12827549 58.56730154 138.30173921 55 141.625 C54.401875 142.17414063 53.80375 142.72328125 53.1875 143.2890625 C51.81075146 144.8952353 51.81075146 144.8952353 52.109375 146.76171875 C53.10679865 149.26840188 54.19200938 151.72781641 55.32348633 154.17675781 C58.27271675 160.5772484 60.8156591 166.98867202 62.8125 173.75 C63.00682617 174.39735107 63.20115234 175.04470215 63.40136719 175.71166992 C66.46344929 186.51371615 67.33697784 197.1152091 67.25 208.3125 C67.24178223 209.59632568 67.23356445 210.88015137 67.22509766 212.20288086 C66.78854086 249.15764827 51.92108702 281.56012012 25.78515625 307.58325195 C-0.93472801 333.28026564 -37.15736042 343.93981378 -73.49609375 343.3046875 C-98.63483661 342.54262114 -125.42475069 332.97979536 -145 317 C-144.4194679 313.69881206 -143.45131901 312.08865924 -141.05859375 309.765625 C-140.47529297 309.19199219 -139.89199219 308.61835938 -139.29101562 308.02734375 C-138.67935547 307.44082031 -138.06769531 306.85429687 -137.4375 306.25 C-136.82197266 305.64800781 -136.20644531 305.04601562 -135.57226562 304.42578125 C-134.05485187 302.94365619 -132.52829404 301.4709033 -131 300 C-127.95805992 301.14721631 -125.30063262 302.34721747 -122.625 304.1875 C-112.22957002 310.79211529 -100.9568289 315.17745083 -89 318 C-87.66388672 318.33837891 -87.66388672 318.33837891 -86.30078125 318.68359375 C-57.72748947 324.73195478 -28.49812567 316.86782799 -4 302 C-0.46717781 299.53200027 2.7703031 296.84911069 6 294 C6.88042969 293.27425781 7.76085937 292.54851562 8.66796875 291.80078125 C25.28757968 277.6190258 34.87879882 258.66498538 41 238 C41.35320312 236.90816406 41.70640625 235.81632813 42.0703125 234.69140625 C46.22168479 218.20801628 45.5926057 198.27782423 41 182 C40.6596875 180.77410156 40.319375 179.54820312 39.96875 178.28515625 C36.6505174 167.42242857 31.87406154 156.87447037 24.9375 147.8125 C23 145 23 145 23.09887695 143.12036133 C24.34899894 140.17879821 26.19304916 138.48876333 28.48046875 136.26171875 C29.39763672 135.35873047 30.31480469 134.45574219 31.25976562 133.52539062 C32.23524488 132.5789814 33.21115947 131.63302068 34.1875 130.6875 C43.09268593 122.28896472 43.09268593 122.28896472 51 113 C50.35120846 104.91575566 38.61715598 97.05264694 33 92 C0.43392159 64.5029552 -41.8061378 53.69491359 -83.74462891 57.23144531 C-88.91516274 57.81175904 -93.94321508 58.78970707 -99 60 C-99.72654785 60.16628906 -100.4530957 60.33257812 -101.20166016 60.50390625 C-120.73261007 65.07057131 -142.21887974 73.67461809 -157.421875 87.1015625 C-159 88 -159 88 -160.91137695 87.73876953 C-163.32168551 86.88621621 -164.30267786 85.97357532 -165.99609375 84.078125 C-166.54894043 83.4704126 -167.10178711 82.8627002 -167.67138672 82.23657227 C-168.2542041 81.58100342 -168.83702148 80.92543457 -169.4375 80.25 C-170.67634659 78.88746638 -171.91728208 77.5268295 -173.16015625 76.16796875 C-174.10785889 75.130354 -174.10785889 75.130354 -175.07470703 74.07177734 C-178.095023 70.82166305 -181.22509587 67.68647357 -184.375 64.5625 C-184.94017334 64.00143555 -185.50534668 63.44037109 -186.08764648 62.86230469 C-187.38964645 61.572728 -188.69447462 60.28600756 -190 59 C-195.57080377 61.44199617 -199.61649803 65.88927746 -204 70 C-204.79792969 70.7321875 -205.59585938 71.464375 -206.41796875 72.21875 C-240.54301575 104.72939837 -260.78794768 154.11884655 -262.37109375 200.84765625 C-262.42360412 203.58624841 -262.43943523 206.32343568 -262.4375 209.0625 C-262.4375705 209.79066925 -262.43764099 210.5188385 -262.43771362 211.26907349 C-262.2679147 257.51891793 -245.45555799 303.08377948 -215 338 C-216.32120828 340.93230193 -217.74638197 342.98664899 -220.0390625 345.234375 C-220.61914062 345.80800781 -221.19921875 346.38164062 -221.796875 346.97265625 C-222.40015625 347.55917969 -223.0034375 348.14570313 -223.625 348.75 C-224.23601562 349.35199219 -224.84703125 349.95398438 -225.4765625 350.57421875 C-226.97988624 352.05405305 -228.48934856 353.52764676 -230 355 C-269.17234498 316.57965466 -285.78703224 259.75134518 -286.375 206.25 C-286.33059952 170.56928405 -276.67096952 136.37651948 -260 105 C-259.52175781 104.05382812 -259.04351562 103.10765625 -258.55078125 102.1328125 C-244.93069894 75.82927245 -223.51992827 51.61476703 -199.66796875 34.21923828 C-197.98216213 32.98696102 -196.31905295 31.72793445 -194.65625 30.46484375 C-168.95076944 11.21815699 -139.14092241 -0.18988919 -108 -7 C-107.18208984 -7.18224121 -106.36417969 -7.36448242 -105.52148438 -7.55224609 C-71.02853876 -14.85330135 -33.21408918 -10.6076784 0 0 Z " fill="#FC5000" transform="translate(341,65)"/>
<path d="M0 0 C50.49 0 100.98 0 153 0 C151.78893387 3.02766533 150.66006114 5.79996425 149.1875 8.66259766 C148.6649765 9.68228134 148.6649765 9.68228134 148.13189697 10.7225647 C147.57160797 11.80735611 147.57160797 11.80735611 147 12.9140625 C146.60826599 13.67665375 146.21653198 14.439245 145.81292725 15.22494507 C144.54428369 17.69283806 143.27226808 20.15897387 142 22.625 C141.12263041 24.32938027 140.245352 26.03380748 139.36816406 27.73828125 C134.83297715 36.54389617 130.27894533 45.33870743 125.64208984 54.09130859 C121.92216515 61.11961229 118.27387968 68.1846577 114.625 75.25 C108.6050205 86.90488488 102.55453791 98.54342052 96.47802734 110.16894531 C94.91612854 113.16064974 93.3580734 116.15433274 91.80078125 119.1484375 C91.26928467 120.16953613 90.73778809 121.19063477 90.19018555 122.24267578 C89.18693159 124.170313 88.18442215 126.09833799 87.18286133 128.02685547 C83.86653036 134.39462918 80.4579815 140.70807921 77 147 C76.34 147 75.68 147 75 147 C73.83035008 144.83490333 72.66434827 142.66794696 71.5 140.5 C71.02820313 139.62794922 71.02820313 139.62794922 70.546875 138.73828125 C68.06790775 134.11405389 65.70610723 129.43453713 63.3671875 124.73828125 C58.96502153 115.90000801 54.47697825 107.1066553 49.97363281 98.31958008 C48.63210907 95.70137453 47.29254913 93.08217079 45.953125 90.46289062 C40.79359259 80.38390567 35.56751478 70.34265813 30.28173828 60.3293457 C27.19811318 54.48577461 24.15922816 48.61936356 21.125 42.75 C17.6069448 35.9458012 14.08338903 29.14528523 10.5078125 22.37109375 C9.95851074 21.32791992 9.40920898 20.28474609 8.84326172 19.20996094 C7.80956145 17.24900334 6.77233402 15.28989946 5.73095703 13.33300781 C5.26802246 12.45354492 4.80508789 11.57408203 4.328125 10.66796875 C3.9249707 9.90766357 3.52181641 9.1473584 3.10644531 8.36401367 C1.84571748 5.67036239 0.9404888 2.82146641 0 0 Z " fill="#FA4F00" transform="translate(199,221)"/>
<path d="M0 0 C29.7 0 59.4 0 90 0 C88.56559271 4.30322187 87.22066662 7.76869061 85.1640625 11.71875 C84.31932373 13.34635254 84.31932373 13.34635254 83.45751953 15.00683594 C82.85278809 16.15958008 82.24805664 17.31232422 81.625 18.5 C80.98927328 19.71899872 80.35369591 20.93807533 79.71826172 22.15722656 C75.48085389 30.26751675 71.13020967 38.31222284 66.70410156 46.32104492 C63.63344075 51.90995365 60.67042289 57.5463552 57.765625 63.22265625 C57.40197845 63.93249664 57.03833191 64.64233704 56.66366577 65.37368774 C54.85172072 68.91430638 53.04797585 72.45883376 51.25439453 76.00878906 C50.59423061 77.30411551 49.93391873 78.59936657 49.2734375 79.89453125 C48.68997559 81.04800049 48.10651367 82.20146973 47.50537109 83.38989258 C46 86 46 86 44 87 C43.44650879 85.91807373 42.89301758 84.83614746 42.32275391 83.72143555 C40.21773774 79.60742604 38.1112589 75.49416679 36.00439453 71.38110352 C35.10231869 69.61958091 34.20061076 67.85786984 33.29931641 66.09594727 C27.32235962 54.41249934 21.27241563 42.77082819 15.14337158 31.16647339 C12.2047734 25.59838437 9.28663204 20.01973493 6.375 14.4375 C6.06385254 13.84525635 5.75270508 13.2530127 5.43212891 12.64282227 C4.52122293 10.90842525 3.6159723 9.17106166 2.7109375 7.43359375 C2.18806152 6.43384521 1.66518555 5.43409668 1.12646484 4.40405273 C0 2 0 2 0 0 Z " fill="#061C2B" transform="translate(236,244)"/>
</svg>
