<?xml version="1.0" encoding="UTF-8"?>
<svg version="1.1" xmlns="http://www.w3.org/2000/svg" width="225" height="225">
<path d="M0 0 C74.25 0 148.5 0 225 0 C225 74.25 225 148.5 225 225 C150.75 225 76.5 225 0 225 C0 150.75 0 76.5 0 0 Z " fill="#009FD2" transform="translate(0,0)"/>
<path d="M0 0 C0.93561768 0.41064697 0.93561768 0.41064697 1.89013672 0.82958984 C20.51238515 9.03939829 35.60542876 22.35149641 43.44140625 41.52734375 C50.16045515 59.7702315 51.0262838 81.93663353 43.10595703 100.04394531 C39.91285256 106.87058245 36.58205053 112.84509769 31 118 C27.89893528 114.99584355 25.01589067 111.88852769 22.1875 108.625 C18.96156068 104.95473319 15.5506423 101.77799253 11.8203125 98.6328125 C10.08984511 97.08059068 8.64498932 95.49408856 7.1875 93.6875 C5.10119391 90.85430578 5.10119391 90.85430578 2 89 C2 88.34 2 87.68 2 87 C1.443125 86.773125 0.88625 86.54625 0.3125 86.3125 C-3.68438886 84.04399551 -6.53966649 81.38100054 -8 77 C-2.04483049 78.4068405 3.70914816 80.15384685 9.5 82.125 C10.73363281 82.54072266 10.73363281 82.54072266 11.9921875 82.96484375 C13.99572877 83.6404565 15.99800011 84.31983337 18 85 C21.11455329 72.23792797 19.9109297 57.42670892 13.28125 46.05078125 C10.76678587 42.31637583 8.76944201 39.51296134 5 37 C5 36.34 5 35.68 5 35 C4.44699219 34.731875 3.89398438 34.46375 3.32421875 34.1875 C1.69905189 33.35716265 0.09853741 32.47757759 -1.48046875 31.5625 C-13.39308556 24.6865307 -26.89686598 22.5372179 -40.4453125 25.83984375 C-54.84209501 31.42188606 -63.83327947 40.55273822 -70.01953125 54.38671875 C-73.94135032 64.83969467 -73.23546158 78.75240381 -69 89 C-67.23848277 92.52303446 -65.24100042 95.76361726 -63 99 C-62.39091797 99.93972656 -62.39091797 99.93972656 -61.76953125 100.8984375 C-56.66351876 107.84261448 -45.83955864 114.30148738 -37.30859375 115.82421875 C-21.74611327 117.00917919 -8.32174584 115.61106543 4.09765625 105.25 C4.72542969 104.8375 5.35320312 104.425 6 104 C7.485 104.495 7.485 104.495 9 105 C9 105.66 9 106.32 9 107 C9.58910156 107.25007813 10.17820312 107.50015625 10.78515625 107.7578125 C13.29309705 109.16438247 14.62424578 110.65554334 16.4375 112.875 C19.07926036 116.00117697 21.73768876 118.51034142 25 121 C27.84534021 123.69942533 30.46591314 126.5122403 33 129.5 C36.47679234 133.59764812 40.12012319 137.31985306 44.3125 140.6875 C45.199375 141.450625 46.08625 142.21375 47 143 C47 143.66 47 144.32 47 145 C41.50678681 143.64920987 36.13279011 142.07271161 30.8046875 140.171875 C29.88196045 139.84711182 28.9592334 139.52234863 28.00854492 139.18774414 C26.1465197 138.52753494 24.28967635 137.8525007 22.4387207 137.16186523 C17.18833157 135.29023846 17.18833157 135.29023846 11.71875 135.6484375 C10.8215625 136.09445313 9.924375 136.54046875 9 137 C8.06800781 137.39058594 7.13601562 137.78117188 6.17578125 138.18359375 C4.27880776 139.01432839 2.38295643 139.84763057 0.48828125 140.68359375 C-8.48922151 144.07152032 -16.65173569 145.53108363 -26.25 145.4375 C-27.34465576 145.42992676 -28.43931152 145.42235352 -29.56713867 145.41455078 C-46.99784492 145.06163469 -61.6914071 139.27890402 -75 128 C-75.62648438 127.50628906 -76.25296875 127.01257813 -76.8984375 126.50390625 C-81.417817 122.86274678 -84.76172841 118.80127735 -88 114 C-88.74056641 112.92492187 -88.74056641 112.92492187 -89.49609375 111.828125 C-100.76638527 94.38112825 -103.77239055 73.86721387 -100.38671875 53.4765625 C-95.59848241 33.69081057 -83.07306674 16.88270319 -66 6 C-62.1024791 3.68536042 -58.18141876 1.74801369 -54 0 C-53.03707031 -0.41378906 -52.07414062 -0.82757813 -51.08203125 -1.25390625 C-35.90142512 -6.66612235 -14.70774602 -6.87911704 0 0 Z " fill="#FBFDFD" transform="translate(139,42)"/>
<path d="M0 0 C3.39540434 1.13180145 4.15357852 2.10357199 6.375 4.8125 C9.03938718 7.95826806 11.71455838 10.49268929 15 13 C16.68762851 14.6454378 18.3540349 16.31288577 20 18 C20.845625 18.845625 21.69125 19.69125 22.5625 20.5625 C23.366875 21.366875 24.17125 22.17125 25 23 C25.78375 23.66 26.5675 24.32 27.375 25 C27.91125 25.66 28.4475 26.32 29 27 C28.6875 29.6875 28.6875 29.6875 28 32 C28.495 32.495 28.495 32.495 29 33 C29.6875 34.9375 29.6875 34.9375 30 37 C29.34 37.66 28.68 38.32 28 39 C27.278125 38.0925 26.55625 37.185 25.8125 36.25 C24.13355013 34.22677108 22.64101603 32.71465377 20.5625 31.0625 C17.7376782 28.78886294 15.60909337 26.29405437 13.33203125 23.48828125 C12.04920055 21.87117455 12.04920055 21.87117455 10 21 C10 20.34 10 19.68 10 19 C10.99 19 11.98 19 13 19 C13 18.01 13 17.02 13 16 C10.03 15.505 10.03 15.505 7 15 C7.66 13.68 8.32 12.36 9 11 C8.2575 10.443125 7.515 9.88625 6.75 9.3125 C4.0658789 7.05539816 2.02759007 4.85364529 0 2 C0 1.34 0 0.68 0 0 Z " fill="#0D9FD0" transform="translate(138,128)"/>
<path d="M0 0 C0.66 0 1.32 0 2 0 C1.84015625 1.22074219 1.6803125 2.44148438 1.515625 3.69921875 C0.85011502 9.73482791 0.77817127 15.74511296 0.75 21.8125 C0.729375 22.91142578 0.70875 24.01035156 0.6875 25.14257812 C0.65121513 32.83950585 1.7925904 39.63114735 4 47 C3.34 46.67 2.68 46.34 2 46 C2 45.34 2 44.68 2 44 C1.01 44 0.02 44 -1 44 C-1 41.69 -1 39.38 -1 37 C-1.66 37 -2.32 37 -3 37 C-2.979375 36.071875 -2.95875 35.14375 -2.9375 34.1875 C-2.84230396 30.97713989 -2.84230396 30.97713989 -4 28 C-4.22527225 24.81627845 -4.18514162 21.62839133 -4.1875 18.4375 C-4.19974609 17.56158203 -4.21199219 16.68566406 -4.22460938 15.78320312 C-4.22654297 14.94595703 -4.22847656 14.10871094 -4.23046875 13.24609375 C-4.23663208 12.09645142 -4.23663208 12.09645142 -4.24291992 10.92358398 C-4 9 -4 9 -2 7 C-1.28072705 4.68234271 -0.6090107 2.34904126 0 0 Z " fill="#1DA9D3" transform="translate(38,91)"/>
<path d="M0 0 C1.25955231 3.77865693 0.48087189 5.03411786 -0.9375 8.6875 C-1.31777344 9.68136719 -1.69804688 10.67523438 -2.08984375 11.69921875 C-2.39019531 12.45847656 -2.69054687 13.21773437 -3 14 C-2.34 14 -1.68 14 -1 14 C-0.81548975 30.8929385 -0.81548975 30.8929385 -2 38 C-1.34 38 -0.68 38 0 38 C0 39.65 0 41.3 0 43 C-5.77934675 36.95795567 -5.32251647 27.805274 -5.30883789 19.96289062 C-5.14086863 12.58964917 -3.36368912 6.49338248 0 0 Z " fill="#0E9FC7" transform="translate(71,90)"/>
<path d="M0 0 C0.74757568 -0.0014502 1.49515137 -0.00290039 2.26538086 -0.00439453 C7.38247067 0.09599586 11.88962929 0.98120874 16.8125 2.375 C16.8125 3.365 16.8125 4.355 16.8125 5.375 C14.04973823 4.85231534 11.4864124 4.26630413 8.8125 3.375 C6.86145103 3.29607679 6.86145103 3.29607679 4.75 3.42578125 C3.56144409 3.48294312 3.56144409 3.48294312 2.34887695 3.54125977 C1.51187256 3.58951904 0.67486816 3.63777832 -0.1875 3.6875 C-1.03803955 3.73382568 -1.8885791 3.78015137 -2.76489258 3.82788086 C-9.01042008 4.20861154 -15.08297168 4.96204176 -21.1875 6.375 C-19.48732928 2.97465856 -16.22138844 2.41535616 -12.765625 1.203125 C-8.44899023 0.20407853 -4.41686492 0.00091041 0 0 Z " fill="#0DA3D2" transform="translate(111.1875,65.625)"/>
<path d="M0 0 C7.10437904 1.6716186 14.03859556 3.81394921 21 6 C21 6.33 21 6.66 21 7 C18.36 6.67 15.72 6.34 13 6 C13.7763932 9.0745356 13.7763932 9.0745356 16 11 C14.35 11.66 12.7 12.32 11 13 C10.67 12.01 10.34 11.02 10 10 C9.4225 9.71125 8.845 9.4225 8.25 9.125 C4.18868518 7.09434259 1.43203699 4.29611097 0 0 Z " fill="#E6F5F4" transform="translate(131,119)"/>
<path d="M0 0 C0.66 0 1.32 0 2 0 C2.05413245 2.89608593 2.09373641 5.79115195 2.125 8.6875 C2.14175781 9.50412109 2.15851563 10.32074219 2.17578125 11.16210938 C2.18222656 11.95810547 2.18867188 12.75410156 2.1953125 13.57421875 C2.20578613 14.30213623 2.21625977 15.03005371 2.22705078 15.7800293 C2 18 2 18 0 23 C-3.63 22.01 -7.26 21.02 -11 20 C-11 19.67 -11 19.34 -11 19 C-8.03 19 -5.06 19 -2 19 C-2 17.02 -2 15.04 -2 13 C-2.33 13 -2.66 13 -3 13 C-3 11.35 -3 9.7 -3 8 C-2.01 8 -1.02 8 0 8 C0 5.36 0 2.72 0 0 Z " fill="#0DA0D3" transform="translate(157,104)"/>
<path d="M0 0 C0.721875 0.7425 1.44375 1.485 2.1875 2.25 C4.90711047 5.01267269 4.90711047 5.01267269 7.8125 7.1875 C8.534375 7.785625 9.25625 8.38375 10 9 C10 9.66 10 10.32 10 11 C3.24947898 9.22089072 -3.40620337 7.29561809 -10 5 C-9 3 -9 3 -6.93359375 2.1484375 C-5.69802734 1.76558594 -5.69802734 1.76558594 -4.4375 1.375 C-3.61121094 1.11460937 -2.78492188 0.85421875 -1.93359375 0.5859375 C-1.29550781 0.39257812 -0.65742188 0.19921875 0 0 Z " fill="#EFF7F6" transform="translate(176,176)"/>
<path d="M0 0 C1.11375 0.2475 1.11375 0.2475 2.25 0.5 C5.19006578 1.11925696 5.19006578 1.11925696 9 1 C8 4 8 4 7 6 C8.32 6.66 9.64 7.32 11 8 C9 9 9 9 7.09838867 8.45019531 C6.3169751 8.16241211 5.53556152 7.87462891 4.73046875 7.578125 C-1.75141733 5.53280749 -7.94375436 5.63136346 -14.6875 5.75 C-15.87150391 5.75515625 -17.05550781 5.7603125 -18.27539062 5.765625 C-23.9406877 5.81640637 -29.42137757 5.98719007 -35 7 C-34.67 6.34 -34.34 5.68 -34 5 C-30.03070912 3.86780899 -26.05634886 3.8059338 -21.94921875 3.68359375 C-20.96100883 3.6524221 -20.96100883 3.6524221 -19.95283508 3.62062073 C-17.86448815 3.55564511 -15.77602388 3.49648425 -13.6875 3.4375 C-12.2649622 3.39426521 -10.84243594 3.3506494 -9.41992188 3.30664062 C-5.94673703 3.20001784 -2.47342274 3.09860652 1 3 C0.505 1.515 0.505 1.515 0 0 Z " fill="#24A4CA" transform="translate(127,33)"/>
<path d="M0 0 C0.86419556 0.21329956 0.86419556 0.21329956 1.74584961 0.4309082 C8.74741682 2.01150525 15.40389112 2.26958423 22.5625 2.1875 C24.1702832 2.1865332 24.1702832 2.1865332 25.81054688 2.18554688 C31.95030655 2.15175003 37.91231982 1.79848901 44 1 C43.67 1.66 43.34 2.32 43 3 C39.68231225 3.89507776 36.44715269 4.15696762 33.0234375 4.28125 C32.105625 4.31863281 31.1878125 4.35601562 30.2421875 4.39453125 C28.3229272 4.46513074 26.40365624 4.53544092 24.484375 4.60546875 C23.11152344 4.66154297 23.11152344 4.66154297 21.7109375 4.71875 C20.87868652 4.74904297 20.04643555 4.77933594 19.18896484 4.81054688 C16.8223163 4.92964566 16.8223163 4.92964566 14 6 C12.60560336 6.06665376 11.20830125 6.08538199 9.8125 6.0625 C7.9253125 6.0315625 7.9253125 6.0315625 6 6 C5.67 5.34 5.34 4.68 5 4 C3.35636866 3.27840576 1.68949614 2.60648579 0 2 C0 1.34 0 0.68 0 0 Z " fill="#27A7CC" transform="translate(90,184)"/>
<path d="M0 0 C0.66 0.33 1.32 0.66 2 1 C1.34 2.98 0.68 4.96 0 7 C-0.99 7 -1.98 7 -3 7 C-5.3289646 8.66512671 -5.9290745 9.65620082 -6.51171875 12.48046875 C-6.56972656 13.37378906 -6.62773438 14.26710938 -6.6875 15.1875 C-6.75324219 16.08855469 -6.81898437 16.98960938 -6.88671875 17.91796875 C-6.92410156 18.60503906 -6.96148437 19.29210937 -7 20 C-9.31 19.67 -11.62 19.34 -14 19 C-10.43731164 11.58817596 -5.6693314 5.91636109 0 0 Z " fill="#EDF8F8" transform="translate(61,57)"/>
<path d="M0 0 C-0.928125 0.1546875 -0.928125 0.1546875 -1.875 0.3125 C-4.36526484 0.87525373 -4.36526484 0.87525373 -6 4 C-8.1640625 4.73046875 -8.1640625 4.73046875 -10.625 5.1875 C-11.85089844 5.42533203 -11.85089844 5.42533203 -13.1015625 5.66796875 C-14.04128906 5.83232422 -14.04128906 5.83232422 -15 6 C-15 5.34 -15 4.68 -15 4 C-15.99 4.33 -16.98 4.66 -18 5 C-18 4.34 -18 3.68 -18 3 C-11.30252651 -1.08985061 -7.49123313 -2.91325733 0 0 Z " fill="#139EC8" transform="translate(160,178)"/>
<path d="M0 0 C0.99 0 1.98 0 3 0 C3 0.66 3 1.32 3 2 C3.66 2 4.32 2 5 2 C5 1.34 5 0.68 5 0 C5.66 0 6.32 0 7 0 C5.7874262 3.72433382 4.49140021 7.37802806 3 11 C2.67 10.01 2.34 9.02 2 8 C1.34 8 0.68 8 0 8 C-0.33 9.32 -0.66 10.64 -1 12 C-1.02698189 10.37509046 -1.04638757 8.75005367 -1.0625 7.125 C-1.07410156 6.22007813 -1.08570313 5.31515625 -1.09765625 4.3828125 C-1 2 -1 2 0 0 Z " fill="#F0F8F8" transform="translate(65,88)"/>
<path d="M0 0 C1.051875 0.495 1.051875 0.495 2.125 1 C5.26003116 2.09044562 7.70563182 2.15322643 11 2 C10.67 3.32 10.34 4.64 10 6 C10.99 6.66 11.98 7.32 13 8 C13 8.66 13 9.32 13 10 C14.32 10.33 15.64 10.66 17 11 C17 12.65 17 14.3 17 16 C16.34 15.319375 15.68 14.63875 15 13.9375 C12.08957026 11.01877843 8.98592894 8.34521353 5.87109375 5.6484375 C3.82596494 3.84667474 1.88750208 1.966148 0 0 Z " fill="#16A0C5" transform="translate(155,50)"/>
<path d="M0 0 C0 3 0 3 -1 5 C-0.01 5 0.98 5 2 5 C2 5.66 2 6.32 2 7 C0.3603125 7.2165625 0.3603125 7.2165625 -1.3125 7.4375 C-4.93122987 7.88288104 -4.93122987 7.88288104 -8 9 C-8.66 9 -9.32 9 -10 9 C-8.59070303 5.52867905 -7.09394917 4.11906726 -3.875 2.25 C-3.15054688 1.82203125 -2.42609375 1.3940625 -1.6796875 0.953125 C-1.12539062 0.63859375 -0.57109375 0.3240625 0 0 Z " fill="#EBF8F5" transform="translate(75,47)"/>
<path d="M0 0 C0.515625 0.185625 1.03125 0.37125 1.5625 0.5625 C4.85908739 1.15419517 7.72245735 0.567267 11 0 C8.06810006 2.39073149 5.27856712 3.84107307 1.75 5.1875 C0.41195312 5.70376953 0.41195312 5.70376953 -0.953125 6.23046875 C-1.62859375 6.48441406 -2.3040625 6.73835937 -3 7 C-3.33 6.34 -3.66 5.68 -4 5 C-3.01 5 -2.02 5 -1 5 C-1 4.34 -1 3.68 -1 3 C-1.66 2.67 -2.32 2.34 -3 2 C-2.01 2 -1.02 2 0 2 C0 1.34 0 0.68 0 0 Z " fill="#ECF7F9" transform="translate(141,176)"/>
<path d="M0 0 C2.66433205 2.52985472 4.90783283 5.30988735 7.1875 8.1875 C7.90292969 9.08855469 8.61835937 9.98960937 9.35546875 10.91796875 C10.16951172 11.94857422 10.16951172 11.94857422 11 13 C8 13 8 13 5 12 C4.34 12.66 3.68 13.32 3 14 C3 11.69 3 9.38 3 7 C1.68 7 0.36 7 -1 7 C-0.67 4.69 -0.34 2.38 0 0 Z " fill="#109FC6" transform="translate(49,153)"/>
<path d="M0 0 C2.92019303 3.2429512 3.36406734 5.30184762 3.25 9.625 C3.22421875 10.67429687 3.1984375 11.72359375 3.171875 12.8046875 C2.93419219 17.22342693 2.54404698 21.6087637 2 26 C1.67 26 1.34 26 1 26 C-0.16711095 17.33003296 -0.09744014 8.72630608 0 0 Z " fill="#2BABDA" transform="translate(187,104)"/>
<path d="M0 0 C1.44826172 0.0918457 1.44826172 0.0918457 2.92578125 0.18554688 C5.28534861 0.33740022 7.64263826 0.50500901 10 0.6875 C10 1.0175 10 1.3475 10 1.6875 C8.13408203 1.76097656 8.13408203 1.76097656 6.23046875 1.8359375 C-2.64941335 2.22217446 -11.30692009 2.67539386 -20 4.6875 C-18.55858091 1.80466182 -16.36057423 1.30386774 -13.4375 0.26708984 C-8.95665053 -0.79836855 -4.55552385 -0.35501669 0 0 Z " fill="#0A9BC4" transform="translate(110,67.3125)"/>
<path d="M0 0 C5.75 -0.125 5.75 -0.125 8 1 C8 1.66 8 2.32 8 3 C8.99 3.33 9.98 3.66 11 4 C3.57142857 6.42857143 3.57142857 6.42857143 0 5 C0 3.33333333 0 1.66666667 0 0 Z " fill="#F0FAF9" transform="translate(88,64)"/>
<path d="M0 0 C0.66 0 1.32 0 2 0 C1.88490339 1.41750563 1.75746342 2.83401169 1.625 4.25 C1.55539063 5.03890625 1.48578125 5.8278125 1.4140625 6.640625 C0.98492887 9.085877 0.21399362 10.84836903 -1 13 C-1.99 13 -2.98 13 -4 13 C-3.48923036 9.25435594 -2.82512578 6.30804047 -1 3 C-0.67 2.01 -0.34 1.02 0 0 Z " fill="#11A0C8" transform="translate(38,91)"/>
<path d="M0 0 C0.66 0 1.32 0 2 0 C3.625 3.3125 3.625 3.3125 5 7 C4.01 8.485 4.01 8.485 3 10 C0.9375 8.375 0.9375 8.375 -1 6 C-0.75 2.75 -0.75 2.75 0 0 Z " fill="#EFF7F8" transform="translate(164,146)"/>
<path d="M0 0 C1 3 1 3 0 6 C2.31 6.33 4.62 6.66 7 7 C6.01 8.485 6.01 8.485 5 10 C1.74456771 9.65120368 0.98126893 8.97866739 -1.25 6.4375 C-1.8275 5.633125 -2.405 4.82875 -3 4 C-2.67 3.34 -2.34 2.68 -2 2 C-1.34 2 -0.68 2 0 2 C0 1.34 0 0.68 0 0 Z " fill="#DFF0F5" transform="translate(148,130)"/>
<path d="M0 0 C2.18975773 3.28463659 2.99806563 6.20696275 4 10 C1.11562221 8.70700306 -0.87219421 7.34058637 -3 5 C-3.33 5.66 -3.66 6.32 -4 7 C-4 5.35 -4 3.7 -4 2 C-3.01 2 -2.02 2 -1 2 C-0.67 1.34 -0.34 0.68 0 0 Z " fill="#E5F4F3" transform="translate(180,80)"/>
<path d="M0 0 C3.40414403 1.13471468 4.24276648 2.17225987 6.5 4.875 C8.58578225 7.35415347 10.67301287 9.7439576 13 12 C12.67 12.66 12.34 13.32 12 14 C7.36310537 10.62771299 3.44017707 6.58029339 0 2 C0 1.34 0 0.68 0 0 Z " fill="#16A1C0" transform="translate(138,128)"/>
<path d="M0 0 C0 0.66 0 1.32 0 2 C2.97 2.495 2.97 2.495 6 3 C6.33 3.99 6.66 4.98 7 6 C5.22739369 5.54857225 3.4569632 5.08859477 1.6875 4.625 C0.20830078 4.24214844 0.20830078 4.24214844 -1.30078125 3.8515625 C-4 3 -4 3 -7 1 C-2.25 0 -2.25 0 0 0 Z " fill="#CBEFF4" transform="translate(179,181)"/>
<path d="M0 0 C1.71017726 2.5652659 2.90417811 4.87960965 4.125 7.6875 C4.47820313 8.49574219 4.83140625 9.30398437 5.1953125 10.13671875 C5.46085937 10.75160156 5.72640625 11.36648437 6 12 C5.01 11.67 4.02 11.34 3 11 C3 10.01 3 9.02 3 8 C2.34 8 1.68 8 1 8 C0.67 8.66 0.34 9.32 0 10 C-1.125 3.375 -1.125 3.375 0 0 Z " fill="#1BA4CC" transform="translate(42,139)"/>
<path d="M0 0 C0.33 0 0.66 0 1 0 C2.32 5.94 3.64 11.88 5 18 C4.34 17.67 3.68 17.34 3 17 C3 16.34 3 15.68 3 15 C2.01 15 1.02 15 0 15 C0 10.05 0 5.1 0 0 Z " fill="#20A0C1" transform="translate(37,120)"/>
<path d="M0 0 C0.66 0.33 1.32 0.66 2 1 C1.34 2.98 0.68 4.96 0 7 C-0.99 7 -1.98 7 -3 7 C-5.18777466 8.9375006 -5.18777466 8.9375006 -7 11 C-7.66 10.67 -8.32 10.34 -9 10 C-6.03 6.7 -3.06 3.4 0 0 Z " fill="#D9EFF4" transform="translate(61,57)"/>
<path d="M0 0 C3.81684226 1.55500981 6.19195732 4.03595495 9 7 C7.35 7.33 5.7 7.66 4 8 C1.84622436 5.37801226 0.59927826 3.35595828 0 0 Z " fill="#16A0CC" transform="translate(61,168)"/>
<path d="M0 0 C0.66 0 1.32 0 2 0 C2 2.64 2 5.28 2 8 C1.34 8 0.68 8 0 8 C-0.33 9.32 -0.66 10.64 -1 12 C-1.2226746 10.56465159 -1.42761906 9.12654475 -1.625 7.6875 C-1.74101562 6.88699219 -1.85703125 6.08648437 -1.9765625 5.26171875 C-2 3 -2 3 0 0 Z " fill="#0D9EC7" transform="translate(187,88)"/>
<path d="M0 0 C1.28317892 3.84953676 1.06643637 6.94738135 1 11 C0.01 11.495 0.01 11.495 -1 12 C-1 11.34 -1 10.68 -1 10 C-1.99 10 -2.98 10 -4 10 C-2.8905928 6.51329166 -1.73662334 3.22515763 0 0 Z " fill="#E6F6F7" transform="translate(46,77)"/>
<path d="M0 0 C0.99 0.99 1.98 1.98 3 3 C1.68 5.64 0.36 8.28 -1 11 C-1.33 11 -1.66 11 -2 11 C-1.979375 9.906875 -1.95875 8.81375 -1.9375 7.6875 C-1.81455548 4.05615809 -1.81455548 4.05615809 -3 1 C-2.01 0.67 -1.02 0.34 0 0 Z " fill="#179FCB" transform="translate(44,74)"/>
<path d="M0 0 C1.125 3.75 1.125 3.75 0 6 C-3.63 5.01 -7.26 4.02 -11 3 C-11 2.67 -11 2.34 -11 2 C-7.66666667 2 -4.33333333 2 -1 2 C-0.67 1.34 -0.34 0.68 0 0 Z " fill="#1B9CC0" transform="translate(157,121)"/>
<path d="M0 0 C0 0.66 0 1.32 0 2 C-1.98611612 3.98611612 -3.44143249 4.91454712 -6 6 C-6.99 6 -7.98 6 -9 6 C-9.33 5.34 -9.66 4.68 -10 4 C-8.71086513 3.32845067 -7.41859796 2.66291141 -6.125 2 C-5.40570313 1.62875 -4.68640625 1.2575 -3.9453125 0.875 C-2 0 -2 0 0 0 Z " fill="#DEF4F5" transform="translate(87,42)"/>
<path d="M0 0 C3.3 0.66 6.6 1.32 10 2 C9.67 2.66 9.34 3.32 9 4 C5.37 4 1.74 4 -2 4 C-1.34 2.68 -0.68 1.36 0 0 Z " fill="#F4F8F4" transform="translate(138,44)"/>
<path d="M0 0 C0.66 0.33 1.32 0.66 2 1 C1.60404157 2.48484412 1.18249294 3.9628831 0.75 5.4375 C0.51796875 6.26121094 0.2859375 7.08492187 0.046875 7.93359375 C-0.29859375 8.61550781 -0.6440625 9.29742187 -1 10 C-2.32 10.33 -3.64 10.66 -5 11 C-3.35 7.37 -1.7 3.74 0 0 Z " fill="#16A2C6" transform="translate(182,140)"/>
<path d="M0 0 C2.31 0 4.62 0 7 0 C4.75 2.5 4.75 2.5 2 5 C0.68 5 -0.64 5 -2 5 C-1.01 4.67 -0.02 4.34 1 4 C0.67 2.68 0.34 1.36 0 0 Z " fill="#13A0C7" transform="translate(139,145)"/>
<path d="M0 0 C2.31 0 4.62 0 7 0 C4.84733158 2.15266842 3.15226256 2.93474462 0.375 4.125 C-0.44226563 4.47820313 -1.25953125 4.83140625 -2.1015625 5.1953125 C-2.72804688 5.46085937 -3.35453125 5.72640625 -4 6 C-4 5.01 -4 4.02 -4 3 C-3.01 3 -2.02 3 -1 3 C-0.67 2.01 -0.34 1.02 0 0 Z " fill="#159DC7" transform="translate(78,42)"/>
<path d="M0 0 C0.99 0.66 1.98 1.32 3 2 C2.67 3.32 2.34 4.64 2 6 C0.68 6.33 -0.64 6.66 -2 7 C-1.34 4.69 -0.68 2.38 0 0 Z " fill="#E8F5F2" transform="translate(170,170)"/>
<path d="M0 0 C0.99 0.33 1.98 0.66 3 1 C3 1.66 3 2.32 3 3 C3.99 3.33 4.98 3.66 6 4 C5.67 4.66 5.34 5.32 5 6 C2.0280615 4.87548273 -0.33440687 3.77706209 -3 2 C-2.01 1.34 -1.02 0.68 0 0 Z " fill="#DAF1F4" transform="translate(145,146)"/>
<path d="M0 0 C2.64 0 5.28 0 8 0 C8 0.66 8 1.32 8 2 C5 4 5 4 3 5 C2.01 4.34 1.02 3.68 0 3 C0 2.01 0 1.02 0 0 Z " fill="#E8F3F6" transform="translate(80,177)"/>
<path d="M0 0 C3.25 -0.3125 3.25 -0.3125 7 0 C9.4375 2.5 9.4375 2.5 11 5 C9.53932801 4.54917531 8.08151968 4.08906463 6.625 3.625 C5.81289062 3.36976563 5.00078125 3.11453125 4.1640625 2.8515625 C2 2 2 2 0 0 Z " fill="#1DA1C6" transform="translate(90,153)"/>
<path d="M0 0 C0.57234375 0.37898437 1.1446875 0.75796875 1.734375 1.1484375 C-1.20579838 2.67297185 -4.12034685 4.10001145 -7.265625 5.1484375 C-8.255625 4.8184375 -9.245625 4.4884375 -10.265625 4.1484375 C-9.0293082 3.25420836 -7.77590938 2.38355859 -6.515625 1.5234375 C-5.81953125 1.03617188 -5.1234375 0.54890625 -4.40625 0.046875 C-2.265625 -0.8515625 -2.265625 -0.8515625 0 0 Z " fill="#DCF2F5" transform="translate(143.265625,149.8515625)"/>
<path d="M0 0 C1.5625 1.8125 1.5625 1.8125 3 4 C2.67 4.99 2.34 5.98 2 7 C0.68 6.67 -0.64 6.34 -2 6 C-1.49396008 3.83125748 -1.00016187 2.00032373 0 0 Z " fill="#EAF7F9" transform="translate(68,129)"/>
<path d="M0 0 C1.32 0.33 2.64 0.66 4 1 C4 1.99 4 2.98 4 4 C4.99 4.33 5.98 4.66 7 5 C6.67 5.99 6.34 6.98 6 8 C5.67 7.01 5.34 6.02 5 5 C4.34 4.67 3.68 4.34 3 4 C1 3 1 3 0 0 Z " fill="#D2ECF4" transform="translate(136,124)"/>
<path d="M0 0 C2.31 0.33 4.62 0.66 7 1 C5.71034824 2.37562854 4.37310707 3.70766393 3 5 C2.34 5 1.68 5 1 5 C0.67 3.35 0.34 1.7 0 0 Z " fill="#E3F6F8" transform="translate(80,72)"/>
<path d="M0 0 C0 0.99 0 1.98 0 3 C-3.63 3.66 -7.26 4.32 -11 5 C-9.70976282 2.41952564 -8.72910609 2.32977036 -6.0625 1.375 C-5.35222656 1.11460938 -4.64195313 0.85421875 -3.91015625 0.5859375 C-2 0 -2 0 0 0 Z " fill="#26A4C4" transform="translate(101,67)"/>
<path d="M0 0 C1.65 0 3.3 0 5 0 C4.67 0.66 4.34 1.32 4 2 C4.66 2.33 5.32 2.66 6 3 C6 3.66 6 4.32 6 5 C3.36 4.34 0.72 3.68 -2 3 C-1.34 2.67 -0.68 2.34 0 2 C0 1.34 0 0.68 0 0 Z " fill="#E3F7F5" transform="translate(127,65)"/>
<path d="M0 0 C0.33 0.66 0.66 1.32 1 2 C-3.29 1.67 -7.58 1.34 -12 1 C-12 0.67 -12 0.34 -12 0 C-3.05084746 -1.34237288 -3.05084746 -1.34237288 0 0 Z " fill="#EBF9F3" transform="translate(124,185)"/>
<path d="M0 0 C1.32 0.33 2.64 0.66 4 1 C4.625 2.875 4.625 2.875 5 5 C4.34 5.66 3.68 6.32 3 7 C0 3.375 0 3.375 0 0 Z " fill="#1BA5D9" transform="translate(163,160)"/>
<path d="M0 0 C3 0 3 0 5.1875 2 C5.785625 2.66 6.38375 3.32 7 4 C4.36 4 1.72 4 -1 4 C-0.67 2.68 -0.34 1.36 0 0 Z " fill="#21ADD1" transform="translate(153,145)"/>
<path d="M0 0 C1.64767247 0.28109113 3.29313145 0.57518526 4.9375 0.875 C5.85402344 1.03742188 6.77054687 1.19984375 7.71484375 1.3671875 C8.46894531 1.57601562 9.22304687 1.78484375 10 2 C10.33 2.66 10.66 3.32 11 4 C9.54119891 3.85892253 8.08296449 3.71197585 6.625 3.5625 C5.40683594 3.44068359 5.40683594 3.44068359 4.1640625 3.31640625 C2 3 2 3 0 2 C0 1.34 0 0.68 0 0 Z " fill="#24A6BF" transform="translate(90,184)"/>
<path d="M0 0 C1.65 1.32 3.3 2.64 5 4 C4.67 5.65 4.34 7.3 4 9 C3.34 9 2.68 9 2 9 C1.855625 8.2575 1.71125 7.515 1.5625 6.75 C1.09812508 4.47972261 0.58136431 2.24240521 0 0 Z " fill="#1EA2C9" transform="translate(162,151)"/>
<path d="M0 0 C2.34058637 2.12780579 3.70700306 4.11562221 5 7 C3.02 7 1.04 7 -1 7 C-0.67 4.69 -0.34 2.38 0 0 Z " fill="#1EA4C5" transform="translate(49,153)"/>
<path d="M0 0 C0.33 0.66 0.66 1.32 1 2 C0.0625 4.125 0.0625 4.125 -1 6 C-2.65 6 -4.3 6 -6 6 C-4 4 -2 2 0 0 Z " fill="#1EA1CA" transform="translate(85,74)"/>
<path d="M0 0 C2.64 0.33 5.28 0.66 8 1 C8 1.99 8 2.98 8 4 C4.31245243 3.50168276 2.39509338 2.89932357 0 0 Z " fill="#0C9BCA" transform="translate(120,67)"/>
<path d="M0 0 C0 3 0 3 -1.5 4.6875 C-1.995 5.120625 -2.49 5.55375 -3 6 C-3.99 5.34 -4.98 4.68 -6 4 C-4.02 2.68 -2.04 1.36 0 0 Z " fill="#DAF1F7" transform="translate(75,47)"/>
<path d="M0 0 C4.875 4.75 4.875 4.75 6 7 C5.01 7 4.02 7 3 7 C3 6.34 3 5.68 3 5 C2.01 4.67 1.02 4.34 0 4 C0 2.68 0 1.36 0 0 Z " fill="#E4F4F1" transform="translate(176,176)"/>
<path d="M0 0 C3.465 1.485 3.465 1.485 7 3 C7 3.33 7 3.66 7 4 C5.02 4.33 3.04 4.66 1 5 C1 4.34 1 3.68 1 3 C0.34 2.67 -0.32 2.34 -1 2 C-0.67 1.34 -0.34 0.68 0 0 Z " fill="#E1F5F7" transform="translate(89,153)"/>
<path d="M0 0 C2.475 0.99 2.475 0.99 5 2 C3.68 3.32 2.36 4.64 1 6 C0 5 0 5 -0.0625 2.4375 C-0.041875 1.633125 -0.02125 0.82875 0 0 Z " fill="#E6F4F5" transform="translate(72,80)"/>
<path d="M0 0 C-1.32 0.99 -2.64 1.98 -4 3 C-4 2.34 -4 1.68 -4 1 C-5.98 1.33 -7.96 1.66 -10 2 C-6.19832777 -0.53444815 -4.31588991 -1.33941411 0 0 Z " fill="#D3F0F8" transform="translate(98,40)"/>
</svg>
